<?xml version="1.0" encoding="UTF-8"?>
<svg width="200px" height="200px" viewBox="0 0 200 200" version="1.1" xmlns="http://www.w3.org/2000/svg" xmlns:xlink="http://www.w3.org/1999/xlink">
    <!-- Generator: Sketch 54.1 (76490) - https://sketchapp.com -->
    <title>trinity-tx</title>
    <desc>Created with Sketch.</desc>
    <g id="trinity-tx" stroke="none" stroke-width="1" fill="none" fill-rule="evenodd">
        <g id="trinity-tx_BGL">
            <g id="trinity-tx" transform="translate(0.000000, 9.000000)">
                <g id="g10" transform="translate(100.067067, 90.720326) scale(-1, 1) rotate(-180.000000) translate(-100.067067, -90.720326) translate(0.268276, 0.311206)" fill-rule="nonzero">
                    <g id="g12" transform="translate(0.482897, 0.000000)">
                        <path d="M117.891345,168.936817 C114.314685,171.261699 106.534672,175.017568 104.925014,175.822397 C100.809119,177.880076 96.1765234,174.482625 96.8761881,169.741646 C97.681017,164.286515 101.169146,160.978131 102.152647,159.368474 C102.152647,159.368474 86.3238074,159.010593 83.5514399,159.368474 C80.5113327,160.26237 62.8941634,162.498185 60.9271615,162.856066 C53.4219705,164.220519 51.1900725,161.317233 51.894888,156.596106 C52.789214,150.604423 54.0410449,148.100868 54.8458739,146.312002 C52.1631644,144.97062 34.4569274,135.402277 29.270395,131.288528 C24.083648,127.175315 8.88139481,116.175986 5.93035532,115.371157 C2.97933192,114.566328 4.85726614,113.851104 5.93035532,113.493223 C7.00346059,113.135343 18.9863979,111.257408 24.9779739,112.59879 C19.7910122,106.160158 12.8160426,89.2592868 10.4910527,80.4952361 C8.16584822,71.7311853 8.61333312,72.5365508 10.4015557,67.8862491 C12.189993,63.2359474 12.189993,63.2359474 12.189993,63.2359474 C12.189993,63.2359474 21.4903818,39.8964443 22.2952107,37.6605222 C23.1000397,35.4248147 23.5468807,35.693091 24.3517097,36.5874169 C25.1565386,37.4819575 26.5876318,38.7332519 27.2134668,39.7172358 C28.3758544,37.5710252 46.1714274,11.1902881 59.7644519,5.55648544 C67.0969802,21.7427225 74.3168325,29.7786713 81.875786,34.093091 C97.2067045,42.843728 106.519649,39.1019172 111.184437,31.8475646 C112.794095,29.3439563 112.190473,30.1487853 112.794095,29.3439563 C114.135477,29.9702206 117.891345,31.6689462 117.891345,31.6689462 C117.891345,31.6689462 120.350902,24.1792616 120.708246,23.017035 C122.295369,23.2182422 126.476187,24.0681416 126.476187,24.0681416 C126.476187,24.0681416 129.332257,16.3132927 129.963779,14.8346073 C131.05942,15.9297649 134.345805,20.2225615 134.345805,20.2225615 L136.713612,14.9350499 C136.713612,14.9350499 144.987253,22.4584837 145.523806,22.9053247 C146.954792,21.921931 148.787656,19.8868405 149.413812,19.5294428 C150.308246,21.0720317 153.6617,25.2303146 153.6617,25.0515353 C153.6617,24.8729705 156.657273,21.7877929 157.462102,20.8037553 C157.838225,21.5560021 159.739231,25.4975715 162.136012,28.8665318 C163.585241,30.904788 165.068272,32.7822929 166.181082,33.726089 C169.132122,36.2296436 172.083161,41.4170345 168.059017,46.8716286 C171.3674,49.8226681 174.855529,56.0820912 174.139768,61.3585498 C173.790472,63.92971 172.977595,62.5212593 171.636213,61.3585498 C170.294831,60.1958402 162.33561,55.2772622 159.474174,55.0985902 C156.881016,58.496578 156.612739,64.3095893 157.059688,68.0654577 C157.506636,71.8213262 160.278467,76.2918827 172.261833,78.3490255 C171.367937,74.5931571 170.115623,70.479408 169.132122,68.9593544 C168.148621,67.4393008 167.790204,65.8296429 170.115623,66.9027482 C178.574375,70.8061686 180.827896,74.0646527 184.51294,80.7635124 C185.496977,82.5523789 185.407373,83.1785358 187.017031,84.1620368 C188.626689,85.1455378 194.339901,89.7958395 194.350096,98.2910774 C194.364583,110.900064 194.529304,116.622935 187.196239,121.362841 C179.863175,126.10221 168.148084,132.98779 165.018373,135.581486 C161.888661,138.174644 164.571424,137.190607 160.457675,141.03608 C158.925818,142.468139 152.996911,148.001069 145.702478,152.75117 C133.404155,160.759218 117.891345,168.936817 117.891345,168.936817" id="path14" fill="#231F20"></path>
                        <path d="M189.525951,124.967401 C186.875381,126.68115 183.64748,128.678736 180.525817,130.610325 C175.377595,133.795838 169.542585,137.407374 167.756937,138.88665 C167.381351,139.19785 167.172095,139.393155 167.064785,139.499929 C166.498722,140.83058 165.717501,141.994899 163.388326,144.17223 C157.022665,150.123135 151.530513,154.078601 148.04453,156.348219 C136.2672,164.017702 121.870419,171.687186 120.061701,172.644395 C116.671224,174.815824 110.394095,177.91066 107.687187,179.245066 L106.844263,179.661967 C105.429374,180.36968 103.929709,180.728097 102.38712,180.728097 C99.5401719,180.728097 96.829508,179.479003 94.948891,177.300599 C93.0344712,175.083027 92.1894008,172.099794 92.6299105,169.115489 C92.9427207,166.99235 93.5763893,165.130512 94.3238072,163.531585 C92.7517079,163.513879 91.1168321,163.501539 89.6058998,163.501539 C86.1724995,163.501539 84.8300448,163.564315 84.3278316,163.603484 C81.6713595,164.268809 74.7342704,165.253383 66.6468126,166.372632 C64.3557328,166.689734 62.191816,166.989131 61.6944317,167.079271 C60.2087175,167.349157 58.8244117,167.486515 57.5806827,167.486515 C54.0812864,167.486515 51.3927284,166.426287 49.5902335,164.334268 C47.7858606,162.24064 47.1328224,159.423738 47.6496299,155.962437 C48.1612329,152.534403 48.7939894,150.105965 49.4062496,148.291344 C43.1564308,144.921257 30.9808711,138.123672 26.6029772,134.65164 C20.7905562,130.042116 7.34363496,120.500064 4.72669606,119.491345 C0.951753162,118.437019 0.101861191,116.250567 0.0557511723,114.596912 C-0.0113180413,112.184571 1.50821727,110.443458 4.57243718,109.420789 C5.79981206,109.011936 11.4306637,108.116966 16.9393423,107.885712 C12.4511868,99.5278312 8.09566713,88.206034 6.34221312,81.5957055 C4.22367796,73.6112658 4.03902337,72.1695488 5.85808168,67.6941633 C6.01840361,67.2997971 6.19825605,66.8576777 6.39522452,66.3458065 L8.20254842,61.6472151 C10.7817569,55.1742441 17.6163108,37.984761 18.2564181,36.2066255 C18.6632323,35.0764847 19.9010592,31.6377189 23.4494427,31.6377189 C24.8805359,31.6377189 25.9536412,32.2633929 26.672729,32.8611125 C32.7133459,24.2259954 46.179583,6.54046932 58.1209912,1.59079272 L61.9594887,0 L63.674311,3.784794 C69.9171009,17.566626 76.3771946,26.0125547 84.0037538,30.3651233 C89.255531,33.3628966 93.9047596,34.8828429 97.8215938,34.8828429 C102.007241,34.8828429 105.28826,33.0805626 107.573438,29.5265452 C108.335879,28.3406566 108.563914,27.9560556 108.672834,27.7714279 C108.918039,27.358336 109.029105,27.2090671 109.359622,26.7685037 L111.45164,23.980147 L114.609253,25.4545936 C114.798656,25.5426419 115.035812,25.6526888 115.304088,25.7755057 C115.902881,23.9430175 116.459286,22.2304488 116.605228,21.7551168 L117.66653,18.3043859 L121.247482,18.758363 C121.865591,18.8367534 122.780413,18.9923 123.715624,19.1624945 C124.58323,16.8343389 125.633263,14.0442652 126.015825,13.1487052 L128.508649,7.31117353 L132.997985,11.7986852 C133.084906,11.885714 133.180412,11.9850299 133.282357,12.094433 L135.217703,7.77352093 L139.600801,11.7590876 C141.346207,13.3456737 143.727964,15.5084637 145.559218,17.1659285 C146.187521,16.5794764 146.705831,16.1326354 147.286381,15.8008313 L150.988594,13.6879406 L153.126757,17.3763644 C153.26948,17.6225884 153.527025,17.9971558 153.841445,18.4299392 C153.968071,18.28786 154.071089,18.1692283 154.139232,18.0862236 L158.336146,12.9545805 L161.401471,19.0867869 C162.854456,22.0200129 164.278467,24.4737217 165.633799,26.3791274 C167.719379,29.3112803 168.705026,30.2384969 168.957742,30.4525277 C173.133731,33.9954385 175.849761,40.113158 173.325817,46.2363503 C176.651907,50.408047 179.141511,56.4179731 178.39302,61.9358804 C178.155328,63.6855786 177.565656,64.8456054 176.864918,65.6134122 C182.490673,69.0623725 185.021592,72.7817554 188.273637,78.695102 C188.583228,79.2584823 188.800532,79.7134789 188.974911,80.0788712 C189.030176,80.1953032 189.094026,80.3294413 189.143389,80.4287036 C189.172899,80.4480195 189.209385,80.4716278 189.254455,80.4995285 C192.736145,82.6258866 198.631249,88.766195 198.642517,98.2862484 L198.643053,99.0647863 C198.661296,111.531587 198.671491,119.056201 189.525951,124.967401" id="path16" fill="#BAB9B7"></path>
                        <path d="M117.891345,168.936817 C114.314685,171.261699 106.534672,175.017568 104.925014,175.822397 C100.809119,177.880076 96.1765234,174.482625 96.8761881,169.741646 C97.681017,164.286515 101.169146,160.978131 102.152647,159.368474 C102.152647,159.368474 86.3238074,159.010593 83.5514399,159.368474 C80.5113327,160.26237 62.8941634,162.498185 60.9271615,162.856066 C53.4219705,164.220519 51.1900725,161.317233 51.894888,156.596106 C52.789214,150.604423 54.0410449,148.100868 54.8458739,146.312002 C52.1631644,144.97062 34.4569274,135.402277 29.270395,131.288528 C24.083648,127.175315 8.88139481,116.175986 5.93035532,115.371157 C2.97933192,114.566328 4.85726614,113.851104 5.93035532,113.493223 C7.00346059,113.135343 18.9863979,111.257408 24.9779739,112.59879 C19.7910122,106.160158 12.8160426,89.2592868 10.4910527,80.4952361 C8.16584822,71.7311853 8.61333312,72.5365508 10.4015557,67.8862491 C12.189993,63.2359474 12.189993,63.2359474 12.189993,63.2359474 C12.189993,63.2359474 21.4903818,39.8964443 22.2952107,37.6605222 C23.1000397,35.4248147 23.5468807,35.693091 24.3517097,36.5874169 C25.1565386,37.4819575 26.5876318,38.7332519 27.2134668,39.7172358 C28.3758544,37.5710252 46.1714274,11.1902881 59.7644519,5.55648544 C67.0969802,21.7427225 74.3168325,29.7786713 81.875786,34.093091 C97.2067045,42.843728 106.519649,39.1019172 111.184437,31.8475646 C112.794095,29.3439563 112.190473,30.1487853 112.794095,29.3439563 C114.135477,29.9702206 117.891345,31.6689462 117.891345,31.6689462 C117.891345,31.6689462 120.350902,24.1792616 120.708246,23.017035 C122.295369,23.2182422 126.476187,24.0681416 126.476187,24.0681416 C126.476187,24.0681416 129.332257,16.3132927 129.963779,14.8346073 C131.05942,15.9297649 134.345805,20.2225615 134.345805,20.2225615 L136.713612,14.9350499 C136.713612,14.9350499 144.987253,22.4584837 145.523806,22.9053247 C146.954792,21.921931 148.787656,19.8868405 149.413812,19.5294428 C150.308246,21.0720317 153.6617,25.2303146 153.6617,25.0515353 C153.6617,24.8729705 156.657273,21.7877929 157.462102,20.8037553 C157.838225,21.5560021 159.739231,25.4975715 162.136012,28.8665318 C163.585241,30.904788 165.068272,32.7822929 166.181082,33.726089 C169.132122,36.2296436 172.083161,41.4170345 168.059017,46.8716286 C171.3674,49.8226681 174.855529,56.0820912 174.139768,61.3585498 C173.790472,63.92971 172.977595,62.5212593 171.636213,61.3585498 C170.294831,60.1958402 162.33561,55.2772622 159.474174,55.0985902 C156.881016,58.496578 156.612739,64.3095893 157.059688,68.0654577 C157.506636,71.8213262 160.278467,76.2918827 172.261833,78.3490255 C171.367937,74.5931571 170.115623,70.479408 169.132122,68.9593544 C168.148621,67.4393008 167.790204,65.8296429 170.115623,66.9027482 C178.574375,70.8061686 180.827896,74.0646527 184.51294,80.7635124 C185.496977,82.5523789 185.407373,83.1785358 187.017031,84.1620368 C188.626689,85.1455378 194.339901,89.7958395 194.350096,98.2910774 C194.364583,110.900064 194.529304,116.622935 187.196239,121.362841 C179.863175,126.10221 168.148084,132.98779 165.018373,135.581486 C161.888661,138.174644 164.571424,137.190607 160.457675,141.03608 C158.925818,142.468139 152.996911,148.001069 145.702478,152.75117 C133.404155,160.759218 117.891345,168.936817 117.891345,168.936817" id="path18" fill="#8C2129"></path>
                        <path d="M155.651237,81.9036868 C153.169681,78.6843709 150.956401,72.9164301 151.02347,68.0874564 C159.272967,77.007644 160.279003,77.7454038 164.16901,78.8185091 C168.059017,79.8916144 169.668674,80.3610979 171.613678,80.7635124 C173.558681,81.1659269 174.967132,81.232996 174.497648,78.75144 C174.028165,76.2698841 173.894027,72.9164301 172.418507,70.8372886 C175.83903,72.6481538 179.930244,77.4100584 181.070418,79.556269 C182.210592,81.7024795 182.478869,82.9097229 183.08249,83.4462756 C181.338694,85.5924861 179.46076,87.6716276 178.253517,88.4093875 C171.546609,82.976792 166.114013,81.300065 155.651237,81.9036868" id="path20" fill="#FFFFFF"></path>
                        <path d="M179.058346,91.5616342 C180.668004,90.2202526 184.222665,87.202144 184.692148,85.7266243 C188.350364,89.4009367 190.728365,90.555598 191.197849,97.329575 C191.667333,104.103552 192.371826,112.589132 188.090136,116.980815 C184.602544,120.557475 182.813678,120.289199 181.114952,120.557475 C179.416226,120.825752 168.774778,121.273236 166.270687,120.557475 C163.766596,119.842251 162.872162,120.378803 165.823202,121.898857 C168.774241,123.419447 174.050163,125.028568 175.749426,125.207777 C173.514147,126.549158 172.709318,126.996107 170.473503,126.996107 C168.237689,126.996107 156.254322,126.638763 154.019044,126.10221 C151.783765,125.565657 153.035543,126.638763 154.376924,127.443592 C155.718306,128.248421 163.051371,131.19946 165.912806,131.288528 C155.539097,137.638092 162.156938,136.832726 156.165254,140.946475 C150.173571,145.060224 140.247347,152.303685 137.83286,154.092015 C135.418374,155.880881 134.077529,155.969949 130.768608,156.238225 C127.459688,156.506502 127.459688,156.506502 127.459688,156.506502 C127.459688,156.506502 91.4205209,155.880881 85.7867182,156.506502 C80.1529155,157.132659 74.7879257,157.758816 70.5845723,156.506502 C66.3817556,155.254724 63.8776644,152.840238 63.4307161,152.214081 C62.9832312,151.58846 63.5203203,151.945804 64.1459407,150.425751 C64.7720976,148.905697 69.6010714,141.39396 70.942453,139.87337 C72.2838345,138.353316 72.6411786,138.979473 74.1617688,138.711197 C75.6818224,138.442921 96.8756515,136.564987 102.062506,134.239567 C100.530112,138.599058 98.9322578,140.320855 98.5749137,141.483028 C98.2170331,142.645738 98.349025,142.661298 100.0059,141.662237 C105.639702,138.263712 124.329977,132.451237 129.874175,130.662908 C135.418374,128.874041 139.799862,127.443055 142.661834,125.74433 C145.523806,124.045067 160.904624,117.427764 165.733597,116.086382 C170.562571,114.745 176.324073,114.718709 183.439834,116.086382 C185.765254,116.53333 187.874979,116.372365 188.716293,114.208448 C189.341913,112.59879 188.090673,112.330514 187.106635,112.062237 C186.122598,111.793961 182.814214,110.631251 181.741109,110.094699 C180.668004,109.558146 179.058346,108.12716 179.058346,104.729172 C179.058346,101.331185 179.058346,91.5616342 179.058346,91.5616342" id="path22" fill="#FFFFFF"></path>
                        <path d="M130.142451,159.100197 C124.419581,162.587789 117.124611,166.738561 116.013411,166.969278 C114.901674,167.200532 113.688528,167.684503 111.72099,166.969278 C109.753451,166.254054 106.98162,163.660895 106.98162,161.514684 C106.98162,159.368474 107.070688,159.010593 109.038227,159.100197 C111.005765,159.189265 130.142451,159.100197 130.142451,159.100197" id="path24" fill="#FFFFFF"></path>
                        <path d="M147.312136,62.0737744 C144.897649,59.9275639 142.125818,54.9193816 141.589265,52.8627753 C141.052713,50.8060618 140.874041,51.0739625 141.589265,50.8951832 C142.30449,50.7165648 145.165925,50.179422 146.507307,49.8220779 C147.848688,49.4646802 151.002545,49.6327821 152.856871,49.2855253 C157.149292,48.4806963 162.514818,49.3751832 165.734134,48.0338016 C169.668674,51.1634595 171.744597,55.958684 171.904489,58.8544586 C168.685174,56.4399718 164.773705,53.095049 159.921123,52.2365648 C149.816227,50.4482885 147.991411,51.5396365 147.312136,62.0737744" id="path26" fill="#FFFFFF"></path>
                        <path d="M41.1638353,99.811131 C49.0331309,107.680212 68.3492941,124.224276 89.2748469,126.907039 C93.2989916,123.866395 97.5914127,121.094564 98.3962417,120.736684 C99.2010706,120.378803 99.8733711,120.201741 98.3962417,119.48437 C79.97478,110.542184 67.9914135,99.5428547 58.6017423,77.7228686 C74.072701,94.5346724 97.0548601,107.143659 111.363646,112.240909 C115.770889,113.811399 114.314685,113.224947 117.444397,112.688394 C120.574108,112.151842 129.963243,110.81046 136.04453,111.615289 C142.125818,112.420118 144.629373,112.688394 144.897649,111.167804 C145.165925,109.64775 144.98779,109.737355 142.394094,109.28987 C139.800399,108.842921 127.101808,106.786315 122.094162,105.981486 C117.086516,105.176657 115.082492,104.078871 111.094833,102.314686 C87.843861,92.0311178 56.9920844,61.045203 62.6258871,18.5234066 C68.2596898,28.5837686 77.7834991,35.0224002 80.8686767,36.7661963 C79.7633783,72.5156253 109.215289,97.3735723 144.988863,104.908381 C150.084503,105.981486 153.169681,103.164585 149.011398,102.493894 C119.077663,97.665457 101.755061,65.0071077 100.721661,42.2658608 C104.298857,41.8634463 111.184437,38.1970748 113.598924,33.2786041 C116.147549,34.2175712 119.501003,35.2906765 119.501003,35.2906765 L122.384973,26.5716962 L128.018776,27.5777324 L130.768608,19.663581 C130.768608,19.663581 133.987924,24.693762 134.457408,25.56566 C134.926891,26.437558 135.597582,25.9680745 135.999997,24.760831 C136.402411,23.5535876 137.676724,19.663581 137.676724,19.663581 L145.054322,26.6387653 L148.87726,23.4194494 L153.370888,29.5898048 L156.925549,25.3644528 C156.925549,25.3644528 159.80952,31.2665317 162.492283,33.6810186 C165.175046,36.0955055 167.857809,39.918443 167.05298,42.9365516 C166.248151,45.9546602 166.38229,45.4851766 164.437286,45.820522 C162.492283,46.1558674 141.902076,46.4241437 133.518441,50.7165648 C125.134806,55.0089859 122.988595,54.2041569 117.623069,71.3067722 C116.828434,73.8382275 116.188864,74.6446661 118.629105,76.8064367 C123.323941,80.9647196 132.981888,87.6045585 135.329306,88.878871 C137.676724,90.1531835 137.274309,90.1531835 139.018105,89.5495618 C152.214081,84.9813527 166.224543,81.4261549 174.900063,89.4824927 C175.83903,90.3543908 175.973168,90.6226671 176.040237,93.0371539 C176.107306,95.4516408 176.107306,102.695101 176.040237,104.707174 C175.973168,106.719246 174.695636,107.979072 171.546609,108.731319 C167.052444,109.804424 166.046944,108.194766 164.973839,110.005631 C163.900734,111.816496 163.565388,112.084773 160.279003,113.69443 C156.992618,115.304088 146.865187,119.596509 130.232056,120.2672 C135.865858,121.407375 137.475516,122.614618 138.816898,123.956 C136.871895,124.827898 133.987924,126.169279 133.987924,126.169279 C127.965657,122.694564 123.866932,123.821861 122.988595,130.193424 C120.842385,130.864115 117.891345,131.736013 117.891345,131.736013 C117.891345,131.736013 117.958414,125.163243 121.378937,122.413411 C115.610996,125.632727 100.118039,131.803082 86.0329958,133.748085 C82.0678719,134.295369 80.3991932,134.687052 76.911601,133.345671 C65.8929561,129.107441 51.8938686,122.236885 41.1638353,99.811131" id="path28" fill="#FFFFFF"></path>
                        <path d="M126.654859,135.134001 L126.654859,135.491881 C126.654859,135.491881 118.607106,144.613276 118.249226,145.149829 C117.891345,145.686381 117.265188,145.686381 117.265188,145.686381 C117.265188,145.686381 111.542318,141.751304 110.647885,141.214752 C111.989266,140.052579 126.297515,135.134001 126.297515,135.134001" id="path30" fill="#8C2129"></path>
                    </g>
                </g>
            </g>
        </g>
    </g>
</svg>